<?xml version="1.0" encoding="utf-8"?>
<!-- Generator: Adobe Illustrator 23.0.2, SVG Export Plug-In . SVG Version: 6.00 Build 0)  -->
<svg version="1.1" id="Lag_1" xmlns="http://www.w3.org/2000/svg" xmlns:xlink="http://www.w3.org/1999/xlink" x="0px" y="0px"
	 viewBox="0 0 115 50" style="enable-background:new 0 0 115 50;" xml:space="preserve">
<style type="text/css">
	.st0{fill-rule:evenodd;clip-rule:evenodd;fill:#E2000F;}
	.st1{fill-rule:evenodd;clip-rule:evenodd;fill:#FFFFFF;}
</style>
<path class="st0" d="M0,50h115V0H0V50z"/>
<path class="st1" d="M94.8,23.3c-0.3,0.3-1.5,1.4-1,1.9c0.4,0.5,1.8-0.3,2.3-0.9c0.7-0.8,1.1-2.2,1.1-2.2S95.8,22.5,94.8,23.3z
	 M87.4,23.7c-0.9,0.7-1.4,1.5-0.9,1.9c0.4,0.4,1.6-0.3,2.1-1c0.8-1.1,1-2.1,1-2.1S88.8,22.6,87.4,23.7z M77.2,17
	c2.2-1.4,8-7,6.5-8.3C82.3,8.1,78.3,14.3,77.2,17z M48.3,26.8c-0.9,1.2-1.8,3.1-1.1,3.7c0.7,0.6,2.7-1.2,3.4-2
	c1.2-1.5,2.1-3.5,1.4-3.9C50.9,23.9,48.9,25.9,48.3,26.8z M30.5,29.7c2.9-0.8,7.5-1.5,9.1-1.7c1.3-2.1,5.6-9.2-0.5-11.4
	C39.1,16.7,30.5,29.7,30.5,29.7z M18.4,38.9c1.3,1.7,12.6-0.1,20.2-9.4c-5.2,0.8-8.4,1.9-9.5,2.3c-2.5,4-3.5,5.4-4.5,5.3
	c-1.1-0.2,0.7-2.3,1.6-4.4C22.2,34.1,17.2,37.3,18.4,38.9z M14.1,15.2c7.2-2.6,15.3-4.4,23.5-3.2l0.8-1.5c1.7-0.3,3.4-0.5,5.1-0.7
	l-2.3,3.5c2.2,1,4.1,3.3,4.3,5.7c0,3.3-1.5,6.1-3.2,8.6l2.5-0.3c1.7-2.7,6.4-6,8.3-3.5l0.7-0.9l3.1-0.5c-2.7,5-4.2,6.4-3.8,6.9
	c0.4,0.6,5.4-3.8,7.3-7.4l3-0.3l-1.7,2.9c3-2.4,4.1-4,5.8-3.3c2.3,1-2.8,6.3-2.2,6.7c0.5,0.3,4.6-2.7,6.5-5.7L69,22.7l1-1.8l2.8-0.4
	c3-5.5,10.9-15.9,13.3-14.4c2.2,1.4-3.1,8.3-10.2,13.3l-0.4,0.8l6.1-0.7c0.1,0.1,0.2,0.3,0,0.4c-2,1.7-5.8,5.7-3.8,6.9
	c1.8,0.6,4.6-3.5,4.8-4.3c-1.6-0.5-0.3-4.9,1.9-4.3c1.5,0.5,0.4,2.7,0,3.5c2.9-0.4,5.5-3.3,5.5-3.3c0-2.3,1.5-4.8,3.2-4.2
	c1.1,0.6,0.2,2.2-1.6,4.2c-0.2,0.2-0.1,1.1-0.2,2.2c2-0.7,4.2-1.6,6.1-2.5c0-2.2,1.2-4.9,3.1-4.4c1.4,0.4,0,3.2-1.7,4.6
	c0,3,0.5,5-0.3,6.5c-0.9,1.8-4,3.3-5.8,2.3c-1.9-1.1-0.2-3.5,1-4.4c1-0.8,3.7-2,3.7-2s0.1-1,0.1-1.5c-1,0.6-5.9,2.4-5.9,2.4
	c-0.2,1.8-0.2,2.5-1,4.1c-1.1,2-4.6,2.8-5.7,1.7c-0.8-0.8-0.6-2.7,1.1-4c1.3-1,4-2.1,4-2.1s0.2-1,0.2-1.4c-1.7,1.5-3.7,3-6.3,3
	c-1.5,3-5.6,7.2-8.5,5.3c-2.8-1.8,1.7-6.6,2.2-6.9c-1,0.1-2.8,0.5-2.8,0.5l-5,9.1l0.1,0c0,0,17-1.9,32.4-2l-1.8,1.7
	c0.9,0.6,1.8,1.2,2.7,1.7c0,0-16.1-0.7-34.6,0.8l-2.7,5l-3.4,0.2l2.9-5c0,0-8.4,0.3-26.9,2.7c0.2-0.4,0.3-0.5,0.6-1
	c16.5-3.1,27.6-3.9,27.6-3.9s2.6-4.4,2.5-4.3c-1.6,1.3-5.2,4.2-6.7,2.8c-1.1-1.3,2.7-5.6,2.3-6c-0.4-0.3-4.8,4.3-6.5,6.8
	c-0.9,0.1-2.6,0.3-2.6,0.3l1.3-2.5c-1.5,1.1-3,2.4-4.7,3c-0.5,0.2-1.5,0.2-2-1c0,0-3.3,3-5.6,1.8c-1.2-0.6-0.7-2.8-0.4-3.4L41.5,29
	C30,42.2,15,43.7,13.2,40.8c-1.9-3.1,4.9-7.2,14.2-10.1c0,0,8.3-14.7,8.1-14.8c-11.4-1.7-25.5,7-25.5,7L14.1,15.2L14.1,15.2z"/>
</svg>
